<svg xmlns="http://www.w3.org/2000/svg" xmlns:xlink="http://www.w3.org/1999/xlink" width="2000" zoomAndPan="magnify" viewBox="0 0 1500 749.999995" height="1000" preserveAspectRatio="xMidYMid meet" version="1.0"><defs><filter x="0%" y="0%" width="100%" height="100%" id="45a4c120b1"><feColorMatrix values="0 0 0 0 1 0 0 0 0 1 0 0 0 0 1 0 0 0 1 0" color-interpolation-filters="sRGB"/></filter><g/><clipPath id="f5910b4604"><path d="M 285.019531 0 L 1500 0 L 1500 750 L 285.019531 750 Z M 285.019531 0 " clip-rule="nonzero"/></clipPath><linearGradient x1="762.66573" gradientTransform="matrix(0.750047, 0, 0, 0.749951, 0.257788, 135.693529)" y1="-563.94428" x2="2072.634867" gradientUnits="userSpaceOnUse" y2="746.024879" id="c3e03777a4"><stop stop-opacity="1" stop-color="rgb(12.939453%, 77.648926%, 21.179199%)" offset="0"/><stop stop-opacity="1" stop-color="rgb(12.939453%, 77.648926%, 21.179199%)" offset="0.25"/><stop stop-opacity="1" stop-color="rgb(12.939453%, 77.648926%, 21.179199%)" offset="0.375"/><stop stop-opacity="1" stop-color="rgb(12.939453%, 77.648926%, 21.179199%)" offset="0.381713"/><stop stop-opacity="1" stop-color="rgb(12.939453%, 77.648926%, 21.179199%)" offset="0.4375"/><stop stop-opacity="1" stop-color="rgb(12.944031%, 77.603149%, 21.2677%)" offset="0.445312"/><stop stop-opacity="1" stop-color="rgb(12.9776%, 77.264404%, 21.925354%)" offset="0.449219"/><stop stop-opacity="1" stop-color="rgb(13.008118%, 76.971436%, 22.496033%)" offset="0.453125"/><stop stop-opacity="1" stop-color="rgb(13.038635%, 76.678467%, 23.065186%)" offset="0.457031"/><stop stop-opacity="1" stop-color="rgb(13.069153%, 76.385498%, 23.634338%)" offset="0.460938"/><stop stop-opacity="1" stop-color="rgb(13.098145%, 76.092529%, 24.203491%)" offset="0.464844"/><stop stop-opacity="1" stop-color="rgb(13.128662%, 75.799561%, 24.77417%)" offset="0.46875"/><stop stop-opacity="1" stop-color="rgb(13.157654%, 75.506592%, 25.343323%)" offset="0.472656"/><stop stop-opacity="1" stop-color="rgb(13.188171%, 75.213623%, 25.914001%)" offset="0.476562"/><stop stop-opacity="1" stop-color="rgb(13.217163%, 74.919128%, 26.483154%)" offset="0.480469"/><stop stop-opacity="1" stop-color="rgb(13.247681%, 74.62616%, 27.052307%)" offset="0.484375"/><stop stop-opacity="1" stop-color="rgb(13.278198%, 74.333191%, 27.62146%)" offset="0.488281"/><stop stop-opacity="1" stop-color="rgb(13.308716%, 74.040222%, 28.192139%)" offset="0.492187"/><stop stop-opacity="1" stop-color="rgb(13.337708%, 73.747253%, 28.761292%)" offset="0.496094"/><stop stop-opacity="1" stop-color="rgb(13.368225%, 73.454285%, 29.33197%)" offset="0.5"/><stop stop-opacity="1" stop-color="rgb(13.397217%, 73.161316%, 29.901123%)" offset="0.503906"/><stop stop-opacity="1" stop-color="rgb(13.427734%, 72.868347%, 30.470276%)" offset="0.507812"/><stop stop-opacity="1" stop-color="rgb(13.458252%, 72.573853%, 31.039429%)" offset="0.511719"/><stop stop-opacity="1" stop-color="rgb(13.48877%, 72.280884%, 31.610107%)" offset="0.515625"/><stop stop-opacity="1" stop-color="rgb(13.517761%, 71.987915%, 32.17926%)" offset="0.519531"/><stop stop-opacity="1" stop-color="rgb(13.548279%, 71.694946%, 32.749939%)" offset="0.523438"/><stop stop-opacity="1" stop-color="rgb(13.577271%, 71.401978%, 33.319092%)" offset="0.527344"/><stop stop-opacity="1" stop-color="rgb(13.607788%, 71.109009%, 33.888245%)" offset="0.53125"/><stop stop-opacity="1" stop-color="rgb(13.638306%, 70.81604%, 34.457397%)" offset="0.535156"/><stop stop-opacity="1" stop-color="rgb(13.668823%, 70.523071%, 35.028076%)" offset="0.539062"/><stop stop-opacity="1" stop-color="rgb(13.697815%, 70.228577%, 35.597229%)" offset="0.542969"/><stop stop-opacity="1" stop-color="rgb(13.728333%, 69.935608%, 36.167908%)" offset="0.546875"/><stop stop-opacity="1" stop-color="rgb(13.757324%, 69.642639%, 36.737061%)" offset="0.550781"/><stop stop-opacity="1" stop-color="rgb(13.787842%, 69.34967%, 37.306213%)" offset="0.554688"/><stop stop-opacity="1" stop-color="rgb(13.818359%, 69.056702%, 37.875366%)" offset="0.558594"/><stop stop-opacity="1" stop-color="rgb(13.848877%, 68.763733%, 38.446045%)" offset="0.5625"/><stop stop-opacity="1" stop-color="rgb(13.877869%, 68.470764%, 39.015198%)" offset="0.566406"/><stop stop-opacity="1" stop-color="rgb(13.908386%, 68.177795%, 39.585876%)" offset="0.570312"/><stop stop-opacity="1" stop-color="rgb(13.937378%, 67.883301%, 40.155029%)" offset="0.574219"/><stop stop-opacity="1" stop-color="rgb(13.967896%, 67.590332%, 40.724182%)" offset="0.578125"/><stop stop-opacity="1" stop-color="rgb(13.996887%, 67.297363%, 41.293335%)" offset="0.582031"/><stop stop-opacity="1" stop-color="rgb(14.027405%, 67.004395%, 41.864014%)" offset="0.585937"/><stop stop-opacity="1" stop-color="rgb(14.057922%, 66.711426%, 42.433167%)" offset="0.589844"/><stop stop-opacity="1" stop-color="rgb(14.08844%, 66.418457%, 43.003845%)" offset="0.59375"/><stop stop-opacity="1" stop-color="rgb(14.117432%, 66.125488%, 43.572998%)" offset="0.597656"/><stop stop-opacity="1" stop-color="rgb(14.147949%, 65.83252%, 44.142151%)" offset="0.601562"/><stop stop-opacity="1" stop-color="rgb(14.176941%, 65.538025%, 44.711304%)" offset="0.605469"/><stop stop-opacity="1" stop-color="rgb(14.207458%, 65.245056%, 45.281982%)" offset="0.609375"/><stop stop-opacity="1" stop-color="rgb(14.237976%, 64.952087%, 45.851135%)" offset="0.613281"/><stop stop-opacity="1" stop-color="rgb(14.268494%, 64.659119%, 46.421814%)" offset="0.617188"/><stop stop-opacity="1" stop-color="rgb(14.297485%, 64.36615%, 46.990967%)" offset="0.621094"/><stop stop-opacity="1" stop-color="rgb(14.328003%, 64.073181%, 47.56012%)" offset="0.625"/><stop stop-opacity="1" stop-color="rgb(14.356995%, 63.780212%, 48.129272%)" offset="0.628906"/><stop stop-opacity="1" stop-color="rgb(14.387512%, 63.487244%, 48.699951%)" offset="0.632812"/><stop stop-opacity="1" stop-color="rgb(14.41803%, 63.192749%, 49.269104%)" offset="0.636719"/><stop stop-opacity="1" stop-color="rgb(14.448547%, 62.89978%, 49.839783%)" offset="0.640625"/><stop stop-opacity="1" stop-color="rgb(14.477539%, 62.606812%, 50.408936%)" offset="0.644531"/><stop stop-opacity="1" stop-color="rgb(14.508057%, 62.313843%, 50.978088%)" offset="0.648438"/><stop stop-opacity="1" stop-color="rgb(14.537048%, 62.020874%, 51.547241%)" offset="0.652344"/><stop stop-opacity="1" stop-color="rgb(14.567566%, 61.727905%, 52.11792%)" offset="0.65625"/><stop stop-opacity="1" stop-color="rgb(14.596558%, 61.434937%, 52.687073%)" offset="0.660156"/><stop stop-opacity="1" stop-color="rgb(14.627075%, 61.141968%, 53.257751%)" offset="0.664062"/><stop stop-opacity="1" stop-color="rgb(14.657593%, 60.847473%, 53.826904%)" offset="0.667969"/><stop stop-opacity="1" stop-color="rgb(14.68811%, 60.554504%, 54.396057%)" offset="0.671875"/><stop stop-opacity="1" stop-color="rgb(14.717102%, 60.261536%, 54.96521%)" offset="0.675781"/><stop stop-opacity="1" stop-color="rgb(14.74762%, 59.968567%, 55.535889%)" offset="0.679688"/><stop stop-opacity="1" stop-color="rgb(14.776611%, 59.675598%, 56.105042%)" offset="0.683594"/><stop stop-opacity="1" stop-color="rgb(14.807129%, 59.382629%, 56.67572%)" offset="0.6875"/><stop stop-opacity="1" stop-color="rgb(14.837646%, 59.089661%, 57.244873%)" offset="0.691406"/><stop stop-opacity="1" stop-color="rgb(14.868164%, 58.796692%, 57.814026%)" offset="0.695312"/><stop stop-opacity="1" stop-color="rgb(14.897156%, 58.502197%, 58.383179%)" offset="0.699219"/><stop stop-opacity="1" stop-color="rgb(14.927673%, 58.209229%, 58.953857%)" offset="0.703125"/><stop stop-opacity="1" stop-color="rgb(14.956665%, 57.91626%, 59.52301%)" offset="0.707031"/><stop stop-opacity="1" stop-color="rgb(14.987183%, 57.623291%, 60.093689%)" offset="0.710937"/><stop stop-opacity="1" stop-color="rgb(15.0177%, 57.330322%, 60.662842%)" offset="0.714844"/><stop stop-opacity="1" stop-color="rgb(15.048218%, 57.037354%, 61.231995%)" offset="0.71875"/><stop stop-opacity="1" stop-color="rgb(15.077209%, 56.744385%, 61.801147%)" offset="0.722656"/><stop stop-opacity="1" stop-color="rgb(15.107727%, 56.451416%, 62.371826%)" offset="0.726562"/><stop stop-opacity="1" stop-color="rgb(15.136719%, 56.156921%, 62.940979%)" offset="0.730469"/><stop stop-opacity="1" stop-color="rgb(15.167236%, 55.863953%, 63.511658%)" offset="0.734375"/><stop stop-opacity="1" stop-color="rgb(15.197754%, 55.570984%, 64.080811%)" offset="0.738281"/><stop stop-opacity="1" stop-color="rgb(15.228271%, 55.278015%, 64.649963%)" offset="0.742188"/><stop stop-opacity="1" stop-color="rgb(15.257263%, 54.985046%, 65.219116%)" offset="0.746094"/><stop stop-opacity="1" stop-color="rgb(15.287781%, 54.692078%, 65.789795%)" offset="0.75"/><stop stop-opacity="1" stop-color="rgb(15.316772%, 54.399109%, 66.358948%)" offset="0.753906"/><stop stop-opacity="1" stop-color="rgb(15.34729%, 54.10614%, 66.929626%)" offset="0.757812"/><stop stop-opacity="1" stop-color="rgb(15.376282%, 53.811646%, 67.498779%)" offset="0.761719"/><stop stop-opacity="1" stop-color="rgb(15.406799%, 53.518677%, 68.067932%)" offset="0.765625"/><stop stop-opacity="1" stop-color="rgb(15.437317%, 53.225708%, 68.637085%)" offset="0.769531"/><stop stop-opacity="1" stop-color="rgb(15.467834%, 52.932739%, 69.207764%)" offset="0.773437"/><stop stop-opacity="1" stop-color="rgb(15.496826%, 52.639771%, 69.776917%)" offset="0.777344"/><stop stop-opacity="1" stop-color="rgb(15.527344%, 52.346802%, 70.347595%)" offset="0.78125"/><stop stop-opacity="1" stop-color="rgb(15.556335%, 52.053833%, 70.916748%)" offset="0.785156"/><stop stop-opacity="1" stop-color="rgb(15.586853%, 51.760864%, 71.485901%)" offset="0.789062"/><stop stop-opacity="1" stop-color="rgb(15.617371%, 51.46637%, 72.055054%)" offset="0.792969"/><stop stop-opacity="1" stop-color="rgb(15.647888%, 51.173401%, 72.625732%)" offset="0.796875"/><stop stop-opacity="1" stop-color="rgb(15.67688%, 50.880432%, 73.194885%)" offset="0.800781"/><stop stop-opacity="1" stop-color="rgb(15.707397%, 50.587463%, 73.765564%)" offset="0.804687"/><stop stop-opacity="1" stop-color="rgb(15.736389%, 50.294495%, 74.334717%)" offset="0.808594"/><stop stop-opacity="1" stop-color="rgb(15.766907%, 50.001526%, 74.90387%)" offset="0.8125"/><stop stop-opacity="1" stop-color="rgb(15.797424%, 49.708557%, 75.473022%)" offset="0.816406"/><stop stop-opacity="1" stop-color="rgb(15.827942%, 49.415588%, 76.043701%)" offset="0.820312"/><stop stop-opacity="1" stop-color="rgb(15.856934%, 49.121094%, 76.612854%)" offset="0.824219"/><stop stop-opacity="1" stop-color="rgb(15.887451%, 48.828125%, 77.183533%)" offset="0.828125"/><stop stop-opacity="1" stop-color="rgb(15.916443%, 48.535156%, 77.752686%)" offset="0.832031"/><stop stop-opacity="1" stop-color="rgb(15.94696%, 48.242188%, 78.321838%)" offset="0.835938"/><stop stop-opacity="1" stop-color="rgb(15.975952%, 47.949219%, 78.890991%)" offset="0.839844"/><stop stop-opacity="1" stop-color="rgb(16.00647%, 47.65625%, 79.46167%)" offset="0.84375"/><stop stop-opacity="1" stop-color="rgb(16.036987%, 47.363281%, 80.030823%)" offset="0.847656"/><stop stop-opacity="1" stop-color="rgb(16.067505%, 47.070312%, 80.601501%)" offset="0.851562"/><stop stop-opacity="1" stop-color="rgb(16.096497%, 46.777344%, 81.170654%)" offset="0.855469"/><stop stop-opacity="1" stop-color="rgb(16.127014%, 46.484375%, 81.739807%)" offset="0.859375"/><stop stop-opacity="1" stop-color="rgb(16.156006%, 46.18988%, 82.30896%)" offset="0.863281"/><stop stop-opacity="1" stop-color="rgb(16.186523%, 45.896912%, 82.879639%)" offset="0.867187"/><stop stop-opacity="1" stop-color="rgb(16.217041%, 45.603943%, 83.448792%)" offset="0.871094"/><stop stop-opacity="1" stop-color="rgb(16.247559%, 45.310974%, 84.01947%)" offset="0.875"/><stop stop-opacity="1" stop-color="rgb(16.27655%, 45.018005%, 84.588623%)" offset="0.878906"/><stop stop-opacity="1" stop-color="rgb(16.307068%, 44.725037%, 85.157776%)" offset="0.882812"/><stop stop-opacity="1" stop-color="rgb(16.33606%, 44.432068%, 85.726929%)" offset="0.886719"/><stop stop-opacity="1" stop-color="rgb(16.366577%, 44.139099%, 86.297607%)" offset="0.890625"/><stop stop-opacity="1" stop-color="rgb(16.397095%, 43.844604%, 86.86676%)" offset="0.894531"/><stop stop-opacity="1" stop-color="rgb(16.427612%, 43.551636%, 87.437439%)" offset="0.898438"/><stop stop-opacity="1" stop-color="rgb(16.447449%, 43.345642%, 87.837219%)" offset="0.902344"/><stop stop-opacity="1" stop-color="rgb(16.468811%, 43.139648%, 88.238525%)" offset="0.90625"/><stop stop-opacity="1" stop-color="rgb(16.468811%, 43.139648%, 88.238525%)" offset="0.9375"/><stop stop-opacity="1" stop-color="rgb(16.468811%, 43.139648%, 88.238525%)" offset="1"/></linearGradient><clipPath id="97c9069f3a"><rect x="0" width="1500" y="0" height="750"/></clipPath><clipPath id="1aa0fe957b"><rect x="0" width="1500" y="0" height="750"/></clipPath><clipPath id="befbd7f9c5"><rect x="0" width="1500" y="0" height="750"/></clipPath><mask id="201df60501"><g filter="url(#45a4c120b1)"><g transform="matrix(1, 0, 0, 1, 0, -0.000000000000042435)"><g clip-path="url(#befbd7f9c5)"><g transform="matrix(1, 0, 0, 1, 0, -0.000000000000042435)"><g clip-path="url(#1aa0fe957b)"><g fill="#000000" fill-opacity="1"><g transform="translate(968.444511, 489.302867)"><g><path d="M 142.203125 -239.28125 C 182.765625 -239.28125 214.097656 -228.910156 236.203125 -208.171875 C 258.304688 -187.429688 269.359375 -157.238281 269.359375 -117.59375 C 269.359375 -77.9375 258.304688 -47.738281 236.203125 -27 C 214.097656 -6.257812 182.765625 4.109375 142.203125 4.109375 C 101.640625 4.109375 70.359375 -6.203125 48.359375 -26.828125 C 26.367188 -47.453125 15.375 -77.707031 15.375 -117.59375 C 15.375 -157.46875 26.367188 -187.71875 48.359375 -208.34375 C 70.359375 -228.96875 101.640625 -239.28125 142.203125 -239.28125 Z M 142.203125 -182.875 C 126.023438 -182.875 113.71875 -177.972656 105.28125 -168.171875 C 96.851562 -158.378906 92.640625 -145.164062 92.640625 -128.53125 L 92.640625 -106.65625 C 92.640625 -90.019531 96.851562 -76.800781 105.28125 -67 C 113.71875 -57.195312 126.023438 -52.296875 142.203125 -52.296875 C 158.378906 -52.296875 170.738281 -57.195312 179.28125 -67 C 187.832031 -76.800781 192.109375 -90.019531 192.109375 -106.65625 L 192.109375 -128.53125 C 192.109375 -145.164062 187.832031 -158.378906 179.28125 -168.171875 C 170.738281 -177.972656 158.378906 -182.875 142.203125 -182.875 Z M 142.203125 -182.875 "/></g></g></g><g fill="#000000" fill-opacity="1"><g transform="translate(1253.192543, 489.302867)"><g><path d="M 124.078125 -239.28125 C 154.160156 -239.28125 178.882812 -233.179688 198.25 -220.984375 C 217.625 -208.796875 227.539062 -190.738281 228 -166.8125 L 228 -162.703125 L 157.234375 -162.703125 L 157.234375 -164.078125 C 157.234375 -170.910156 154.726562 -176.601562 149.71875 -181.15625 C 144.707031 -185.71875 137.070312 -188 126.8125 -188 C 116.789062 -188 109.101562 -186.519531 103.75 -183.5625 C 98.394531 -180.601562 95.71875 -176.957031 95.71875 -172.625 C 95.71875 -166.46875 99.363281 -161.90625 106.65625 -158.9375 C 113.945312 -155.976562 125.679688 -152.90625 141.859375 -149.71875 C 160.773438 -145.84375 176.328125 -141.796875 188.515625 -137.578125 C 200.710938 -133.367188 211.367188 -126.476562 220.484375 -116.90625 C 229.597656 -107.332031 234.269531 -94.34375 234.5 -77.9375 C 234.5 -50.132812 225.097656 -29.507812 206.296875 -16.0625 C 187.492188 -2.613281 162.367188 4.109375 130.921875 4.109375 C 94.234375 4.109375 65.691406 -2.039062 45.296875 -14.34375 C 24.898438 -26.65625 14.703125 -48.421875 14.703125 -79.640625 L 86.140625 -79.640625 C 86.140625 -67.796875 89.210938 -59.878906 95.359375 -55.890625 C 101.515625 -51.898438 111.085938 -49.90625 124.078125 -49.90625 C 133.648438 -49.90625 141.566406 -50.929688 147.828125 -52.984375 C 154.097656 -55.035156 157.234375 -59.25 157.234375 -65.625 C 157.234375 -71.320312 153.757812 -75.59375 146.8125 -78.4375 C 139.863281 -81.289062 128.523438 -84.316406 112.796875 -87.515625 C 93.660156 -91.609375 77.820312 -95.878906 65.28125 -100.328125 C 52.75 -104.773438 41.8125 -112.125 32.46875 -122.375 C 23.125 -132.625 18.453125 -146.523438 18.453125 -164.078125 C 18.453125 -189.828125 28.421875 -208.796875 48.359375 -220.984375 C 68.304688 -233.179688 93.546875 -239.28125 124.078125 -239.28125 Z M 124.078125 -239.28125 "/></g></g></g></g></g></g></g></g></mask><clipPath id="3c0f820e22"><path d="M 285.019531 0 L 1500 0 L 1500 750 L 285.019531 750 Z M 285.019531 0 " clip-rule="nonzero"/></clipPath><clipPath id="122d88f7c0"><rect x="0" width="1500" y="0" height="750"/></clipPath><clipPath id="e497ffc0dc"><rect x="0" width="1500" y="0" height="750"/></clipPath></defs><g fill="#d9d9d9" fill-opacity="1"><g transform="translate(0.0187736, 489.302867)"><g><path d="M 157.234375 -235.171875 C 171.828125 -235.171875 184.816406 -231.8125 196.203125 -225.09375 C 207.597656 -218.375 216.484375 -209.144531 222.859375 -197.40625 C 229.242188 -185.664062 232.4375 -172.503906 232.4375 -157.921875 L 232.4375 -153.484375 C 232.4375 -138.898438 229.242188 -125.679688 222.859375 -113.828125 C 216.484375 -101.972656 207.597656 -92.6875 196.203125 -85.96875 C 184.816406 -79.25 171.828125 -75.890625 157.234375 -75.890625 L 100.84375 -75.890625 L 100.84375 0 L 25.296875 0 L 25.296875 -235.171875 Z M 100.84375 -130.921875 L 131.953125 -130.921875 C 139.921875 -130.921875 145.898438 -132.96875 149.890625 -137.0625 C 153.878906 -141.164062 155.875 -146.753906 155.875 -153.828125 L 155.875 -156.5625 C 155.875 -163.851562 153.878906 -169.488281 149.890625 -173.46875 C 145.898438 -177.457031 139.921875 -179.453125 131.953125 -179.453125 L 100.84375 -179.453125 Z M 100.84375 -130.921875 "/></g></g></g><g fill="#d9d9d9" fill-opacity="1"><g transform="translate(246.823189, 489.302867)"><g><path d="M 22.90625 0 L 22.90625 -247.828125 L 90.921875 -247.828125 L 90.921875 0 Z M 22.90625 0 "/></g></g></g><g fill="#d9d9d9" fill-opacity="1"><g transform="translate(360.65404, 489.302867)"><g><path d="M 109.734375 -184.59375 C 137.304688 -184.59375 159.75 -179.976562 177.0625 -170.75 C 194.382812 -161.519531 203.046875 -146.535156 203.046875 -125.796875 L 203.046875 -55.375 C 203.046875 -51.5 203.957031 -48.304688 205.78125 -45.796875 C 207.601562 -43.296875 210.335938 -42.046875 213.984375 -42.046875 L 226.296875 -42.046875 L 226.296875 -2.734375 C 225.609375 -2.273438 223.835938 -1.53125 220.984375 -0.5 C 218.140625 0.519531 214.097656 1.539062 208.859375 2.5625 C 203.617188 3.59375 197.578125 4.109375 190.734375 4.109375 C 177.515625 4.109375 166.632812 2.113281 158.09375 -1.875 C 149.550781 -5.863281 143.679688 -11.390625 140.484375 -18.453125 C 131.828125 -11.617188 122.144531 -6.148438 111.4375 -2.046875 C 100.726562 2.054688 88.191406 4.109375 73.828125 4.109375 C 31.441406 4.109375 10.25 -12.753906 10.25 -46.484375 C 10.25 -64.035156 14.976562 -77.425781 24.4375 -86.65625 C 33.894531 -95.882812 47.507812 -102.207031 65.28125 -105.625 C 83.0625 -109.039062 106.304688 -110.75 135.015625 -110.75 L 135.015625 -119.640625 C 135.015625 -126.703125 132.566406 -132.054688 127.671875 -135.703125 C 122.773438 -139.347656 116.453125 -141.171875 108.703125 -141.171875 C 101.640625 -141.171875 95.539062 -139.914062 90.40625 -137.40625 C 85.28125 -134.90625 82.71875 -130.921875 82.71875 -125.453125 L 82.71875 -124.078125 L 15.71875 -124.078125 C 15.488281 -125.222656 15.375 -126.820312 15.375 -128.875 C 15.375 -145.957031 23.519531 -159.515625 39.8125 -169.546875 C 56.113281 -179.578125 79.421875 -184.59375 109.734375 -184.59375 Z M 135.015625 -78.625 C 115.648438 -78.625 101.351562 -76.515625 92.125 -72.296875 C 82.894531 -68.078125 78.28125 -62.4375 78.28125 -55.375 C 78.28125 -43.976562 86.023438 -38.28125 101.515625 -38.28125 C 110.410156 -38.28125 118.21875 -40.671875 124.9375 -45.453125 C 131.65625 -50.242188 135.015625 -56.171875 135.015625 -63.234375 Z M 135.015625 -78.625 "/></g></g></g><g fill="#d9d9d9" fill-opacity="1"><g transform="translate(588.657599, 489.302867)"><g><path d="M 144.9375 -184.59375 C 165.90625 -184.59375 181.628906 -178.78125 192.109375 -167.15625 C 202.585938 -155.53125 207.828125 -138.78125 207.828125 -116.90625 L 207.828125 0 L 139.8125 0 L 139.8125 -108.703125 C 139.8125 -116.453125 137.816406 -122.660156 133.828125 -127.328125 C 129.835938 -132.003906 124.195312 -134.34375 116.90625 -134.34375 C 108.46875 -134.34375 101.628906 -131.609375 96.390625 -126.140625 C 91.148438 -120.671875 88.53125 -113.945312 88.53125 -105.96875 L 88.53125 0 L 20.515625 0 L 20.515625 -180.484375 L 76.234375 -180.484375 L 80.671875 -153.140625 C 87.734375 -162.710938 97.019531 -170.347656 108.53125 -176.046875 C 120.039062 -181.742188 132.175781 -184.59375 144.9375 -184.59375 Z M 144.9375 -184.59375 "/></g></g></g><g fill="#d9d9d9" fill-opacity="1"><g transform="translate(816.661158, 489.302867)"><g><path d="M 140.828125 -180.484375 L 140.828125 -134.34375 L 102.546875 -134.34375 L 102.546875 -65.625 C 102.546875 -57.425781 103.910156 -51.445312 106.640625 -47.6875 C 109.378906 -43.925781 114.394531 -42.046875 121.6875 -42.046875 L 140.828125 -42.046875 L 140.828125 -2.046875 C 135.359375 -0.222656 128.296875 1.253906 119.640625 2.390625 C 110.984375 3.535156 103.460938 4.109375 97.078125 4.109375 C 77.023438 4.109375 61.585938 0.460938 50.765625 -6.828125 C 39.941406 -14.128906 34.53125 -26.550781 34.53125 -44.09375 L 34.53125 -134.34375 L 9.234375 -134.34375 L 9.234375 -180.484375 L 37.265625 -180.484375 L 51.953125 -235.171875 L 102.546875 -235.171875 L 102.546875 -180.484375 Z M 140.828125 -180.484375 "/></g></g></g><g transform="matrix(1, 0, 0, 1, 0, -0.000000000000042435)"><g clip-path="url(#e497ffc0dc)"><g mask="url(#201df60501)"><g transform="matrix(1, 0, 0, 1, 0, -0.000000000000042435)"><g clip-path="url(#122d88f7c0)"><g clip-path="url(#3c0f820e22)"><path fill="url(#c3e03777a4)" d="M 285.019531 0 L 285.019531 750 L 1500 750 L 1500 0 Z M 285.019531 0 " fill-rule="nonzero"/></g></g></g></g></g></g></svg>