<svg xmlns="http://www.w3.org/2000/svg" xmlns:xlink="http://www.w3.org/1999/xlink" width="2000" zoomAndPan="magnify" viewBox="0 0 1500 1499.999933" height="2000" preserveAspectRatio="xMidYMid meet" version="1.0"><defs><filter x="0%" y="0%" width="100%" height="100%" id="60d7d2505e"><feColorMatrix values="0 0 0 0 1 0 0 0 0 1 0 0 0 0 1 0 0 0 1 0" color-interpolation-filters="sRGB"/></filter><g/><clipPath id="0520c5aaaf"><path d="M 410 38.25 L 1500 38.25 L 1500 1310.25 L 410 1310.25 Z M 410 38.25 " clip-rule="nonzero"/></clipPath><linearGradient x1="316.49397" gradientTransform="matrix(0.749739, 0, 0, 0.749853, 201.826233, 499.909082)" y1="-654.498" x2="1891.579611" gradientUnits="userSpaceOnUse" y2="920.587641" id="4cb7264330"><stop stop-opacity="1" stop-color="rgb(12.939453%, 77.648926%, 21.179199%)" offset="0"/><stop stop-opacity="1" stop-color="rgb(12.939453%, 77.648926%, 21.179199%)" offset="0.25"/><stop stop-opacity="1" stop-color="rgb(12.939453%, 77.648926%, 21.179199%)" offset="0.375"/><stop stop-opacity="1" stop-color="rgb(12.939453%, 77.648926%, 21.179199%)" offset="0.40625"/><stop stop-opacity="1" stop-color="rgb(12.939453%, 77.648926%, 21.179199%)" offset="0.421875"/><stop stop-opacity="1" stop-color="rgb(12.979126%, 77.252197%, 21.949768%)" offset="0.425781"/><stop stop-opacity="1" stop-color="rgb(13.020325%, 76.855469%, 22.720337%)" offset="0.429688"/><stop stop-opacity="1" stop-color="rgb(13.069153%, 76.373291%, 23.655701%)" offset="0.433594"/><stop stop-opacity="1" stop-color="rgb(13.119507%, 75.892639%, 24.59259%)" offset="0.4375"/><stop stop-opacity="1" stop-color="rgb(13.168335%, 75.410461%, 25.52948%)" offset="0.441406"/><stop stop-opacity="1" stop-color="rgb(13.217163%, 74.928284%, 26.46637%)" offset="0.445312"/><stop stop-opacity="1" stop-color="rgb(13.265991%, 74.446106%, 27.401733%)" offset="0.449219"/><stop stop-opacity="1" stop-color="rgb(13.316345%, 73.965454%, 28.338623%)" offset="0.453125"/><stop stop-opacity="1" stop-color="rgb(13.365173%, 73.483276%, 29.273987%)" offset="0.457031"/><stop stop-opacity="1" stop-color="rgb(13.414001%, 73.001099%, 30.210876%)" offset="0.460938"/><stop stop-opacity="1" stop-color="rgb(13.46283%, 72.518921%, 31.14624%)" offset="0.464844"/><stop stop-opacity="1" stop-color="rgb(13.513184%, 72.038269%, 32.08313%)" offset="0.46875"/><stop stop-opacity="1" stop-color="rgb(13.562012%, 71.556091%, 33.02002%)" offset="0.472656"/><stop stop-opacity="1" stop-color="rgb(13.612366%, 71.073914%, 33.956909%)" offset="0.476562"/><stop stop-opacity="1" stop-color="rgb(13.661194%, 70.591736%, 34.892273%)" offset="0.480469"/><stop stop-opacity="1" stop-color="rgb(13.710022%, 70.109558%, 35.829163%)" offset="0.484375"/><stop stop-opacity="1" stop-color="rgb(13.75885%, 69.62738%, 36.764526%)" offset="0.488281"/><stop stop-opacity="1" stop-color="rgb(13.809204%, 69.146729%, 37.701416%)" offset="0.492188"/><stop stop-opacity="1" stop-color="rgb(13.858032%, 68.664551%, 38.63678%)" offset="0.496094"/><stop stop-opacity="1" stop-color="rgb(13.90686%, 68.182373%, 39.573669%)" offset="0.5"/><stop stop-opacity="1" stop-color="rgb(13.955688%, 67.700195%, 40.510559%)" offset="0.503906"/><stop stop-opacity="1" stop-color="rgb(14.006042%, 67.219543%, 41.447449%)" offset="0.507812"/><stop stop-opacity="1" stop-color="rgb(14.054871%, 66.737366%, 42.382812%)" offset="0.511719"/><stop stop-opacity="1" stop-color="rgb(14.105225%, 66.255188%, 43.319702%)" offset="0.515625"/><stop stop-opacity="1" stop-color="rgb(14.154053%, 65.77301%, 44.255066%)" offset="0.519531"/><stop stop-opacity="1" stop-color="rgb(14.202881%, 65.292358%, 45.191956%)" offset="0.523438"/><stop stop-opacity="1" stop-color="rgb(14.251709%, 64.810181%, 46.127319%)" offset="0.527344"/><stop stop-opacity="1" stop-color="rgb(14.302063%, 64.328003%, 47.064209%)" offset="0.53125"/><stop stop-opacity="1" stop-color="rgb(14.350891%, 63.845825%, 48.001099%)" offset="0.535156"/><stop stop-opacity="1" stop-color="rgb(14.399719%, 63.365173%, 48.937988%)" offset="0.539062"/><stop stop-opacity="1" stop-color="rgb(14.448547%, 62.882996%, 49.873352%)" offset="0.542969"/><stop stop-opacity="1" stop-color="rgb(14.498901%, 62.400818%, 50.810242%)" offset="0.546875"/><stop stop-opacity="1" stop-color="rgb(14.547729%, 61.91864%, 51.745605%)" offset="0.550781"/><stop stop-opacity="1" stop-color="rgb(14.598083%, 61.436462%, 52.682495%)" offset="0.554687"/><stop stop-opacity="1" stop-color="rgb(14.646912%, 60.954285%, 53.617859%)" offset="0.558594"/><stop stop-opacity="1" stop-color="rgb(14.69574%, 60.473633%, 54.554749%)" offset="0.5625"/><stop stop-opacity="1" stop-color="rgb(14.744568%, 59.991455%, 55.491638%)" offset="0.566406"/><stop stop-opacity="1" stop-color="rgb(14.794922%, 59.509277%, 56.428528%)" offset="0.570312"/><stop stop-opacity="1" stop-color="rgb(14.84375%, 59.0271%, 57.363892%)" offset="0.574219"/><stop stop-opacity="1" stop-color="rgb(14.892578%, 58.546448%, 58.300781%)" offset="0.578125"/><stop stop-opacity="1" stop-color="rgb(14.941406%, 58.06427%, 59.236145%)" offset="0.582031"/><stop stop-opacity="1" stop-color="rgb(14.99176%, 57.582092%, 60.173035%)" offset="0.585937"/><stop stop-opacity="1" stop-color="rgb(15.040588%, 57.099915%, 61.108398%)" offset="0.589844"/><stop stop-opacity="1" stop-color="rgb(15.090942%, 56.619263%, 62.045288%)" offset="0.59375"/><stop stop-opacity="1" stop-color="rgb(15.139771%, 56.137085%, 62.980652%)" offset="0.597656"/><stop stop-opacity="1" stop-color="rgb(15.188599%, 55.654907%, 63.917542%)" offset="0.601562"/><stop stop-opacity="1" stop-color="rgb(15.237427%, 55.172729%, 64.854431%)" offset="0.605469"/><stop stop-opacity="1" stop-color="rgb(15.287781%, 54.692078%, 65.791321%)" offset="0.609375"/><stop stop-opacity="1" stop-color="rgb(15.336609%, 54.2099%, 66.726685%)" offset="0.613281"/><stop stop-opacity="1" stop-color="rgb(15.385437%, 53.727722%, 67.663574%)" offset="0.617187"/><stop stop-opacity="1" stop-color="rgb(15.434265%, 53.245544%, 68.598938%)" offset="0.621094"/><stop stop-opacity="1" stop-color="rgb(15.484619%, 52.763367%, 69.535828%)" offset="0.625"/><stop stop-opacity="1" stop-color="rgb(15.533447%, 52.281189%, 70.471191%)" offset="0.628906"/><stop stop-opacity="1" stop-color="rgb(15.583801%, 51.800537%, 71.408081%)" offset="0.632812"/><stop stop-opacity="1" stop-color="rgb(15.632629%, 51.318359%, 72.344971%)" offset="0.636719"/><stop stop-opacity="1" stop-color="rgb(15.681458%, 50.836182%, 73.28186%)" offset="0.640625"/><stop stop-opacity="1" stop-color="rgb(15.730286%, 50.354004%, 74.217224%)" offset="0.644531"/><stop stop-opacity="1" stop-color="rgb(15.78064%, 49.873352%, 75.154114%)" offset="0.648438"/><stop stop-opacity="1" stop-color="rgb(15.829468%, 49.391174%, 76.089478%)" offset="0.652344"/><stop stop-opacity="1" stop-color="rgb(15.878296%, 48.908997%, 77.026367%)" offset="0.65625"/><stop stop-opacity="1" stop-color="rgb(15.927124%, 48.426819%, 77.961731%)" offset="0.660156"/><stop stop-opacity="1" stop-color="rgb(15.977478%, 47.946167%, 78.898621%)" offset="0.664062"/><stop stop-opacity="1" stop-color="rgb(16.026306%, 47.463989%, 79.83551%)" offset="0.667969"/><stop stop-opacity="1" stop-color="rgb(16.07666%, 46.981812%, 80.7724%)" offset="0.671875"/><stop stop-opacity="1" stop-color="rgb(16.125488%, 46.499634%, 81.707764%)" offset="0.675781"/><stop stop-opacity="1" stop-color="rgb(16.174316%, 46.018982%, 82.644653%)" offset="0.679687"/><stop stop-opacity="1" stop-color="rgb(16.223145%, 45.536804%, 83.580017%)" offset="0.683594"/><stop stop-opacity="1" stop-color="rgb(16.273499%, 45.054626%, 84.516907%)" offset="0.6875"/><stop stop-opacity="1" stop-color="rgb(16.322327%, 44.572449%, 85.452271%)" offset="0.691406"/><stop stop-opacity="1" stop-color="rgb(16.371155%, 44.090271%, 86.38916%)" offset="0.695312"/><stop stop-opacity="1" stop-color="rgb(16.419983%, 43.614197%, 87.313843%)" offset="0.699219"/><stop stop-opacity="1" stop-color="rgb(16.468811%, 43.139648%, 88.238525%)" offset="0.703125"/><stop stop-opacity="1" stop-color="rgb(16.468811%, 43.139648%, 88.238525%)" offset="0.71875"/><stop stop-opacity="1" stop-color="rgb(16.468811%, 43.139648%, 88.238525%)" offset="0.75"/><stop stop-opacity="1" stop-color="rgb(16.468811%, 43.139648%, 88.238525%)" offset="1"/></linearGradient><clipPath id="a8bc177dc6"><rect x="0" width="1500" y="0" height="1350"/></clipPath><clipPath id="9d697d67ab"><rect x="0" width="1500" y="0" height="1350"/></clipPath><clipPath id="392a2dbea7"><rect x="0" width="1500" y="0" height="1350"/></clipPath><mask id="4a2232d589"><g filter="url(#60d7d2505e)"><g transform="matrix(1, 0, 0, 1, 0, 0.000000000000113687)"><g clip-path="url(#392a2dbea7)"><g transform="matrix(1, 0, 0, 1, 0, 0.000000000000113687)"><g clip-path="url(#9d697d67ab)"><g fill="#000000" fill-opacity="1"><g transform="translate(909.746061, 758.249908)"><g><path d="M 104 -175 C 133.664062 -175 156.582031 -167.414062 172.75 -152.25 C 188.914062 -137.082031 197 -115 197 -86 C 197 -57 188.914062 -34.914062 172.75 -19.75 C 156.582031 -4.582031 133.664062 3 104 3 C 74.332031 3 51.457031 -4.539062 35.375 -19.625 C 19.289062 -34.707031 11.25 -56.832031 11.25 -86 C 11.25 -115.164062 19.289062 -137.289062 35.375 -152.375 C 51.457031 -167.457031 74.332031 -175 104 -175 Z M 104 -133.75 C 92.164062 -133.75 83.164062 -130.164062 77 -123 C 70.832031 -115.832031 67.75 -106.164062 67.75 -94 L 67.75 -78 C 67.75 -65.832031 70.832031 -56.164062 77 -49 C 83.164062 -41.832031 92.164062 -38.25 104 -38.25 C 115.832031 -38.25 124.875 -41.832031 131.125 -49 C 137.375 -56.164062 140.5 -65.832031 140.5 -78 L 140.5 -94 C 140.5 -106.164062 137.375 -115.832031 131.125 -123 C 124.875 -130.164062 115.832031 -133.75 104 -133.75 Z M 104 -133.75 "/></g></g></g><g fill="#000000" fill-opacity="1"><g transform="translate(1117.993586, 758.249908)"><g><path d="M 90.75 -175 C 112.75 -175 130.832031 -170.539062 145 -161.625 C 159.164062 -152.707031 166.414062 -139.5 166.75 -122 L 166.75 -119 L 115 -119 L 115 -120 C 115 -125 113.164062 -129.164062 109.5 -132.5 C 105.832031 -135.832031 100.25 -137.5 92.75 -137.5 C 85.414062 -137.5 79.789062 -136.414062 75.875 -134.25 C 71.957031 -132.082031 70 -129.414062 70 -126.25 C 70 -121.75 72.664062 -118.414062 78 -116.25 C 83.332031 -114.082031 91.914062 -111.832031 103.75 -109.5 C 117.582031 -106.664062 128.957031 -103.707031 137.875 -100.625 C 146.789062 -97.539062 154.582031 -92.5 161.25 -85.5 C 167.914062 -78.5 171.332031 -69 171.5 -57 C 171.5 -36.664062 164.625 -21.582031 150.875 -11.75 C 137.125 -1.914062 118.75 3 95.75 3 C 68.914062 3 48.039062 -1.5 33.125 -10.5 C 18.207031 -19.5 10.75 -35.414062 10.75 -58.25 L 63 -58.25 C 63 -49.582031 65.25 -43.789062 69.75 -40.875 C 74.25 -37.957031 81.25 -36.5 90.75 -36.5 C 97.75 -36.5 103.539062 -37.25 108.125 -38.75 C 112.707031 -40.25 115 -43.332031 115 -48 C 115 -52.164062 112.457031 -55.289062 107.375 -57.375 C 102.289062 -59.457031 94 -61.664062 82.5 -64 C 68.5 -67 56.914062 -70.125 47.75 -73.375 C 38.582031 -76.625 30.582031 -82 23.75 -89.5 C 16.914062 -97 13.5 -107.164062 13.5 -120 C 13.5 -138.832031 20.789062 -152.707031 35.375 -161.625 C 49.957031 -170.539062 68.414062 -175 90.75 -175 Z M 90.75 -175 "/></g></g></g></g></g></g></g></g></mask><clipPath id="efa8924a83"><path d="M 410 38.25 L 1500 38.25 L 1500 1310.25 L 410 1310.25 Z M 410 38.25 " clip-rule="nonzero"/></clipPath><clipPath id="c3a51d2e4c"><rect x="0" width="1500" y="0" height="1350"/></clipPath><clipPath id="3c8662ecee"><rect x="0" width="1500" y="0" height="1350"/></clipPath></defs><g fill="#d9d9d9" fill-opacity="1"><g transform="translate(201.500025, 833.249908)"><g><path d="M 115 -172 C 125.664062 -172 135.164062 -169.539062 143.5 -164.625 C 151.832031 -159.707031 158.332031 -152.957031 163 -144.375 C 167.664062 -135.789062 170 -126.164062 170 -115.5 L 170 -112.25 C 170 -101.582031 167.664062 -91.914062 163 -83.25 C 158.332031 -74.582031 151.832031 -67.789062 143.5 -62.875 C 135.164062 -57.957031 125.664062 -55.5 115 -55.5 L 73.75 -55.5 L 73.75 0 L 18.5 0 L 18.5 -172 Z M 73.75 -95.75 L 96.5 -95.75 C 102.332031 -95.75 106.707031 -97.25 109.625 -100.25 C 112.539062 -103.25 114 -107.332031 114 -112.5 L 114 -114.5 C 114 -119.832031 112.539062 -123.957031 109.625 -126.875 C 106.707031 -129.789062 102.332031 -131.25 96.5 -131.25 L 73.75 -131.25 Z M 73.75 -95.75 "/></g></g></g><g fill="#d9d9d9" fill-opacity="1"><g transform="translate(381.997874, 833.249908)"><g><path d="M 16.75 0 L 16.75 -181.25 L 66.5 -181.25 L 66.5 0 Z M 16.75 0 "/></g></g></g><g fill="#d9d9d9" fill-opacity="1"><g transform="translate(465.246906, 833.249908)"><g><path d="M 80.25 -135 C 100.414062 -135 116.832031 -131.625 129.5 -124.875 C 142.164062 -118.125 148.5 -107.164062 148.5 -92 L 148.5 -40.5 C 148.5 -37.664062 149.164062 -35.332031 150.5 -33.5 C 151.832031 -31.664062 153.832031 -30.75 156.5 -30.75 L 165.5 -30.75 L 165.5 -2 C 165 -1.664062 163.707031 -1.125 161.625 -0.375 C 159.539062 0.375 156.582031 1.125 152.75 1.875 C 148.914062 2.625 144.5 3 139.5 3 C 129.832031 3 121.875 1.539062 115.625 -1.375 C 109.375 -4.289062 105.082031 -8.332031 102.75 -13.5 C 96.414062 -8.5 89.332031 -4.5 81.5 -1.5 C 73.664062 1.5 64.5 3 54 3 C 23 3 7.5 -9.332031 7.5 -34 C 7.5 -46.832031 10.957031 -56.625 17.875 -63.375 C 24.789062 -70.125 34.75 -74.75 47.75 -77.25 C 60.75 -79.75 77.75 -81 98.75 -81 L 98.75 -87.5 C 98.75 -92.664062 96.957031 -96.582031 93.375 -99.25 C 89.789062 -101.914062 85.164062 -103.25 79.5 -103.25 C 74.332031 -103.25 69.875 -102.332031 66.125 -100.5 C 62.375 -98.664062 60.5 -95.75 60.5 -91.75 L 60.5 -90.75 L 11.5 -90.75 C 11.332031 -91.582031 11.25 -92.75 11.25 -94.25 C 11.25 -106.75 17.207031 -116.664062 29.125 -124 C 41.039062 -131.332031 58.082031 -135 80.25 -135 Z M 98.75 -57.5 C 84.582031 -57.5 74.125 -55.957031 67.375 -52.875 C 60.625 -49.789062 57.25 -45.664062 57.25 -40.5 C 57.25 -32.164062 62.914062 -28 74.25 -28 C 80.75 -28 86.457031 -29.75 91.375 -33.25 C 96.289062 -36.75 98.75 -41.082031 98.75 -46.25 Z M 98.75 -57.5 "/></g></g></g><g fill="#d9d9d9" fill-opacity="1"><g transform="translate(631.994909, 833.249908)"><g><path d="M 106 -135 C 121.332031 -135 132.832031 -130.75 140.5 -122.25 C 148.164062 -113.75 152 -101.5 152 -85.5 L 152 0 L 102.25 0 L 102.25 -79.5 C 102.25 -85.164062 100.789062 -89.707031 97.875 -93.125 C 94.957031 -96.539062 90.832031 -98.25 85.5 -98.25 C 79.332031 -98.25 74.332031 -96.25 70.5 -92.25 C 66.664062 -88.25 64.75 -83.332031 64.75 -77.5 L 64.75 0 L 15 0 L 15 -132 L 55.75 -132 L 59 -112 C 64.164062 -119 70.957031 -124.582031 79.375 -128.75 C 87.789062 -132.914062 96.664062 -135 106 -135 Z M 106 -135 "/></g></g></g><g fill="#d9d9d9" fill-opacity="1"><g transform="translate(798.742957, 833.249908)"><g><path d="M 103 -132 L 103 -98.25 L 75 -98.25 L 75 -48 C 75 -42 76 -37.625 78 -34.875 C 80 -32.125 83.664062 -30.75 89 -30.75 L 103 -30.75 L 103 -1.5 C 99 -0.164062 93.832031 0.914062 87.5 1.75 C 81.164062 2.582031 75.664062 3 71 3 C 56.332031 3 45.039062 0.332031 37.125 -5 C 29.207031 -10.332031 25.25 -19.414062 25.25 -32.25 L 25.25 -98.25 L 6.75 -98.25 L 6.75 -132 L 27.25 -132 L 38 -172 L 75 -172 L 75 -132 Z M 103 -132 "/></g></g></g><g transform="matrix(1, 0, 0, 1, 0, 75)"><g clip-path="url(#3c8662ecee)"><g mask="url(#4a2232d589)"><g transform="matrix(1, 0, 0, 1, 0, 0.000000000000113687)"><g clip-path="url(#c3a51d2e4c)"><g clip-path="url(#efa8924a83)"><path fill="url(#4cb7264330)" d="M 410 38.25 L 410 1310.25 L 1500 1310.25 L 1500 38.25 Z M 410 38.25 " fill-rule="nonzero"/></g></g></g></g></g></g></svg>