<svg xmlns="http://www.w3.org/2000/svg" xmlns:xlink="http://www.w3.org/1999/xlink" width="2000" zoomAndPan="magnify" viewBox="0 0 1500 749.999995" height="1000" preserveAspectRatio="xMidYMid meet" version="1.0"><defs><filter x="0%" y="0%" width="100%" height="100%" id="92ab613e58"><feColorMatrix values="0 0 0 0 1 0 0 0 0 1 0 0 0 0 1 0 0 0 1 0" color-interpolation-filters="sRGB"/></filter><g/><clipPath id="d0d49e3f32"><path d="M 285.097656 0 L 1500 0 L 1500 750 L 285.097656 750 Z M 285.097656 0 " clip-rule="nonzero"/></clipPath><linearGradient x1="558.207933" gradientTransform="matrix(1.025167, 0, 0, 1.025323, 0.446021, 135.58683)" y1="-412.784037" x2="1516.485685" gradientUnits="userSpaceOnUse" y2="545.493715" id="d4a73c4f7b"><stop stop-opacity="1" stop-color="rgb(12.939453%, 77.648926%, 21.179199%)" offset="0"/><stop stop-opacity="1" stop-color="rgb(12.939453%, 77.648926%, 21.179199%)" offset="0.25"/><stop stop-opacity="1" stop-color="rgb(12.939453%, 77.648926%, 21.179199%)" offset="0.375"/><stop stop-opacity="1" stop-color="rgb(12.939453%, 77.648926%, 21.179199%)" offset="0.381662"/><stop stop-opacity="1" stop-color="rgb(12.939453%, 77.648926%, 21.179199%)" offset="0.4375"/><stop stop-opacity="1" stop-color="rgb(12.945557%, 77.578735%, 21.315002%)" offset="0.445312"/><stop stop-opacity="1" stop-color="rgb(12.983704%, 77.217102%, 22.019958%)" offset="0.449219"/><stop stop-opacity="1" stop-color="rgb(13.014221%, 76.924133%, 22.589111%)" offset="0.453125"/><stop stop-opacity="1" stop-color="rgb(13.043213%, 76.629639%, 23.158264%)" offset="0.457031"/><stop stop-opacity="1" stop-color="rgb(13.07373%, 76.33667%, 23.728943%)" offset="0.460938"/><stop stop-opacity="1" stop-color="rgb(13.102722%, 76.043701%, 24.298096%)" offset="0.464844"/><stop stop-opacity="1" stop-color="rgb(13.13324%, 75.750732%, 24.868774%)" offset="0.46875"/><stop stop-opacity="1" stop-color="rgb(13.162231%, 75.457764%, 25.437927%)" offset="0.472656"/><stop stop-opacity="1" stop-color="rgb(13.192749%, 75.164795%, 26.00708%)" offset="0.476562"/><stop stop-opacity="1" stop-color="rgb(13.223267%, 74.871826%, 26.576233%)" offset="0.480469"/><stop stop-opacity="1" stop-color="rgb(13.253784%, 74.578857%, 27.146912%)" offset="0.484375"/><stop stop-opacity="1" stop-color="rgb(13.282776%, 74.284363%, 27.716064%)" offset="0.488281"/><stop stop-opacity="1" stop-color="rgb(13.313293%, 73.991394%, 28.286743%)" offset="0.492187"/><stop stop-opacity="1" stop-color="rgb(13.342285%, 73.698425%, 28.855896%)" offset="0.496094"/><stop stop-opacity="1" stop-color="rgb(13.372803%, 73.405457%, 29.425049%)" offset="0.5"/><stop stop-opacity="1" stop-color="rgb(13.40332%, 73.112488%, 29.994202%)" offset="0.503906"/><stop stop-opacity="1" stop-color="rgb(13.433838%, 72.819519%, 30.56488%)" offset="0.507812"/><stop stop-opacity="1" stop-color="rgb(13.46283%, 72.52655%, 31.134033%)" offset="0.511719"/><stop stop-opacity="1" stop-color="rgb(13.493347%, 72.233582%, 31.704712%)" offset="0.515625"/><stop stop-opacity="1" stop-color="rgb(13.522339%, 71.939087%, 32.273865%)" offset="0.519531"/><stop stop-opacity="1" stop-color="rgb(13.552856%, 71.646118%, 32.843018%)" offset="0.523438"/><stop stop-opacity="1" stop-color="rgb(13.583374%, 71.353149%, 33.41217%)" offset="0.527344"/><stop stop-opacity="1" stop-color="rgb(13.613892%, 71.060181%, 33.982849%)" offset="0.53125"/><stop stop-opacity="1" stop-color="rgb(13.642883%, 70.767212%, 34.552002%)" offset="0.535156"/><stop stop-opacity="1" stop-color="rgb(13.673401%, 70.474243%, 35.121155%)" offset="0.539062"/><stop stop-opacity="1" stop-color="rgb(13.702393%, 70.181274%, 35.690308%)" offset="0.542969"/><stop stop-opacity="1" stop-color="rgb(13.73291%, 69.888306%, 36.260986%)" offset="0.546875"/><stop stop-opacity="1" stop-color="rgb(13.761902%, 69.593811%, 36.830139%)" offset="0.550781"/><stop stop-opacity="1" stop-color="rgb(13.792419%, 69.300842%, 37.400818%)" offset="0.554688"/><stop stop-opacity="1" stop-color="rgb(13.822937%, 69.007874%, 37.969971%)" offset="0.558594"/><stop stop-opacity="1" stop-color="rgb(13.853455%, 68.714905%, 38.539124%)" offset="0.5625"/><stop stop-opacity="1" stop-color="rgb(13.882446%, 68.421936%, 39.108276%)" offset="0.566406"/><stop stop-opacity="1" stop-color="rgb(13.912964%, 68.128967%, 39.678955%)" offset="0.570312"/><stop stop-opacity="1" stop-color="rgb(13.941956%, 67.835999%, 40.248108%)" offset="0.574219"/><stop stop-opacity="1" stop-color="rgb(13.972473%, 67.54303%, 40.818787%)" offset="0.578125"/><stop stop-opacity="1" stop-color="rgb(14.002991%, 67.250061%, 41.387939%)" offset="0.582031"/><stop stop-opacity="1" stop-color="rgb(14.033508%, 66.957092%, 41.957092%)" offset="0.585938"/><stop stop-opacity="1" stop-color="rgb(14.0625%, 66.662598%, 42.526245%)" offset="0.589844"/><stop stop-opacity="1" stop-color="rgb(14.093018%, 66.369629%, 43.096924%)" offset="0.59375"/><stop stop-opacity="1" stop-color="rgb(14.122009%, 66.07666%, 43.666077%)" offset="0.597656"/><stop stop-opacity="1" stop-color="rgb(14.152527%, 65.783691%, 44.236755%)" offset="0.601562"/><stop stop-opacity="1" stop-color="rgb(14.183044%, 65.490723%, 44.805908%)" offset="0.605469"/><stop stop-opacity="1" stop-color="rgb(14.213562%, 65.197754%, 45.375061%)" offset="0.609375"/><stop stop-opacity="1" stop-color="rgb(14.242554%, 64.904785%, 45.944214%)" offset="0.613281"/><stop stop-opacity="1" stop-color="rgb(14.273071%, 64.611816%, 46.514893%)" offset="0.617188"/><stop stop-opacity="1" stop-color="rgb(14.302063%, 64.317322%, 47.084045%)" offset="0.621094"/><stop stop-opacity="1" stop-color="rgb(14.332581%, 64.024353%, 47.654724%)" offset="0.625"/><stop stop-opacity="1" stop-color="rgb(14.361572%, 63.731384%, 48.223877%)" offset="0.628906"/><stop stop-opacity="1" stop-color="rgb(14.39209%, 63.438416%, 48.79303%)" offset="0.632812"/><stop stop-opacity="1" stop-color="rgb(14.422607%, 63.145447%, 49.362183%)" offset="0.636719"/><stop stop-opacity="1" stop-color="rgb(14.453125%, 62.852478%, 49.932861%)" offset="0.640625"/><stop stop-opacity="1" stop-color="rgb(14.482117%, 62.559509%, 50.502014%)" offset="0.644531"/><stop stop-opacity="1" stop-color="rgb(14.512634%, 62.266541%, 51.072693%)" offset="0.648438"/><stop stop-opacity="1" stop-color="rgb(14.541626%, 61.972046%, 51.641846%)" offset="0.652344"/><stop stop-opacity="1" stop-color="rgb(14.572144%, 61.679077%, 52.210999%)" offset="0.65625"/><stop stop-opacity="1" stop-color="rgb(14.602661%, 61.386108%, 52.780151%)" offset="0.660156"/><stop stop-opacity="1" stop-color="rgb(14.633179%, 61.09314%, 53.35083%)" offset="0.664062"/><stop stop-opacity="1" stop-color="rgb(14.66217%, 60.800171%, 53.919983%)" offset="0.667969"/><stop stop-opacity="1" stop-color="rgb(14.692688%, 60.507202%, 54.490662%)" offset="0.671875"/><stop stop-opacity="1" stop-color="rgb(14.72168%, 60.214233%, 55.059814%)" offset="0.675781"/><stop stop-opacity="1" stop-color="rgb(14.752197%, 59.921265%, 55.628967%)" offset="0.679688"/><stop stop-opacity="1" stop-color="rgb(14.782715%, 59.62677%, 56.19812%)" offset="0.683594"/><stop stop-opacity="1" stop-color="rgb(14.813232%, 59.333801%, 56.768799%)" offset="0.6875"/><stop stop-opacity="1" stop-color="rgb(14.842224%, 59.040833%, 57.337952%)" offset="0.691406"/><stop stop-opacity="1" stop-color="rgb(14.872742%, 58.747864%, 57.907104%)" offset="0.695312"/><stop stop-opacity="1" stop-color="rgb(14.901733%, 58.454895%, 58.476257%)" offset="0.699219"/><stop stop-opacity="1" stop-color="rgb(14.932251%, 58.161926%, 59.046936%)" offset="0.703125"/><stop stop-opacity="1" stop-color="rgb(14.962769%, 57.868958%, 59.616089%)" offset="0.707031"/><stop stop-opacity="1" stop-color="rgb(14.993286%, 57.575989%, 60.186768%)" offset="0.710938"/><stop stop-opacity="1" stop-color="rgb(15.022278%, 57.28302%, 60.75592%)" offset="0.714844"/><stop stop-opacity="1" stop-color="rgb(15.052795%, 56.990051%, 61.325073%)" offset="0.71875"/><stop stop-opacity="1" stop-color="rgb(15.081787%, 56.695557%, 61.894226%)" offset="0.722656"/><stop stop-opacity="1" stop-color="rgb(15.112305%, 56.402588%, 62.464905%)" offset="0.726562"/><stop stop-opacity="1" stop-color="rgb(15.141296%, 56.109619%, 63.034058%)" offset="0.730469"/><stop stop-opacity="1" stop-color="rgb(15.171814%, 55.81665%, 63.604736%)" offset="0.734375"/><stop stop-opacity="1" stop-color="rgb(15.202332%, 55.523682%, 64.173889%)" offset="0.738281"/><stop stop-opacity="1" stop-color="rgb(15.232849%, 55.230713%, 64.743042%)" offset="0.742188"/><stop stop-opacity="1" stop-color="rgb(15.261841%, 54.937744%, 65.312195%)" offset="0.746094"/><stop stop-opacity="1" stop-color="rgb(15.292358%, 54.644775%, 65.882874%)" offset="0.75"/><stop stop-opacity="1" stop-color="rgb(15.32135%, 54.350281%, 66.452026%)" offset="0.753906"/><stop stop-opacity="1" stop-color="rgb(15.351868%, 54.057312%, 67.022705%)" offset="0.757812"/><stop stop-opacity="1" stop-color="rgb(15.382385%, 53.764343%, 67.591858%)" offset="0.761719"/><stop stop-opacity="1" stop-color="rgb(15.412903%, 53.471375%, 68.161011%)" offset="0.765625"/><stop stop-opacity="1" stop-color="rgb(15.441895%, 53.178406%, 68.730164%)" offset="0.769531"/><stop stop-opacity="1" stop-color="rgb(15.472412%, 52.885437%, 69.300842%)" offset="0.773438"/><stop stop-opacity="1" stop-color="rgb(15.501404%, 52.592468%, 69.869995%)" offset="0.777344"/><stop stop-opacity="1" stop-color="rgb(15.531921%, 52.2995%, 70.440674%)" offset="0.78125"/><stop stop-opacity="1" stop-color="rgb(15.562439%, 52.005005%, 71.009827%)" offset="0.785156"/><stop stop-opacity="1" stop-color="rgb(15.592957%, 51.712036%, 71.578979%)" offset="0.789063"/><stop stop-opacity="1" stop-color="rgb(15.621948%, 51.419067%, 72.148132%)" offset="0.792969"/><stop stop-opacity="1" stop-color="rgb(15.652466%, 51.126099%, 72.718811%)" offset="0.796875"/><stop stop-opacity="1" stop-color="rgb(15.681458%, 50.83313%, 73.287964%)" offset="0.800781"/><stop stop-opacity="1" stop-color="rgb(15.711975%, 50.540161%, 73.858643%)" offset="0.804688"/><stop stop-opacity="1" stop-color="rgb(15.740967%, 50.247192%, 74.427795%)" offset="0.808594"/><stop stop-opacity="1" stop-color="rgb(15.771484%, 49.954224%, 74.996948%)" offset="0.8125"/><stop stop-opacity="1" stop-color="rgb(15.802002%, 49.659729%, 75.566101%)" offset="0.816406"/><stop stop-opacity="1" stop-color="rgb(15.83252%, 49.36676%, 76.13678%)" offset="0.820313"/><stop stop-opacity="1" stop-color="rgb(15.861511%, 49.073792%, 76.705933%)" offset="0.824219"/><stop stop-opacity="1" stop-color="rgb(15.892029%, 48.780823%, 77.276611%)" offset="0.828125"/><stop stop-opacity="1" stop-color="rgb(15.921021%, 48.487854%, 77.845764%)" offset="0.832031"/><stop stop-opacity="1" stop-color="rgb(15.951538%, 48.194885%, 78.414917%)" offset="0.835938"/><stop stop-opacity="1" stop-color="rgb(15.982056%, 47.901917%, 78.98407%)" offset="0.839844"/><stop stop-opacity="1" stop-color="rgb(16.012573%, 47.608948%, 79.554749%)" offset="0.84375"/><stop stop-opacity="1" stop-color="rgb(16.041565%, 47.314453%, 80.123901%)" offset="0.847656"/><stop stop-opacity="1" stop-color="rgb(16.072083%, 47.021484%, 80.693054%)" offset="0.851562"/><stop stop-opacity="1" stop-color="rgb(16.101074%, 46.728516%, 81.262207%)" offset="0.855469"/><stop stop-opacity="1" stop-color="rgb(16.131592%, 46.435547%, 81.832886%)" offset="0.859375"/><stop stop-opacity="1" stop-color="rgb(16.162109%, 46.142578%, 82.402039%)" offset="0.863281"/><stop stop-opacity="1" stop-color="rgb(16.192627%, 45.849609%, 82.972717%)" offset="0.867187"/><stop stop-opacity="1" stop-color="rgb(16.221619%, 45.556641%, 83.54187%)" offset="0.871094"/><stop stop-opacity="1" stop-color="rgb(16.252136%, 45.263672%, 84.111023%)" offset="0.875"/><stop stop-opacity="1" stop-color="rgb(16.281128%, 44.970703%, 84.680176%)" offset="0.878906"/><stop stop-opacity="1" stop-color="rgb(16.311646%, 44.677734%, 85.250854%)" offset="0.882812"/><stop stop-opacity="1" stop-color="rgb(16.340637%, 44.38324%, 85.820007%)" offset="0.886719"/><stop stop-opacity="1" stop-color="rgb(16.371155%, 44.090271%, 86.390686%)" offset="0.890625"/><stop stop-opacity="1" stop-color="rgb(16.401672%, 43.797302%, 86.959839%)" offset="0.894531"/><stop stop-opacity="1" stop-color="rgb(16.43219%, 43.504333%, 87.528992%)" offset="0.898438"/><stop stop-opacity="1" stop-color="rgb(16.4505%, 43.321228%, 87.882996%)" offset="0.902344"/><stop stop-opacity="1" stop-color="rgb(16.468811%, 43.139648%, 88.238525%)" offset="0.90625"/><stop stop-opacity="1" stop-color="rgb(16.468811%, 43.139648%, 88.238525%)" offset="0.9375"/><stop stop-opacity="1" stop-color="rgb(16.468811%, 43.139648%, 88.238525%)" offset="1"/></linearGradient><clipPath id="6cd6627e2a"><rect x="0" width="1500" y="0" height="750"/></clipPath><clipPath id="0bcdba0637"><rect x="0" width="1500" y="0" height="750"/></clipPath><clipPath id="f416c8e5a3"><rect x="0" width="1500" y="0" height="750"/></clipPath><mask id="02f9bcad81"><g filter="url(#92ab613e58)"><g transform="matrix(1, 0, 0, 1, 0, -0.000000000000042435)"><g clip-path="url(#f416c8e5a3)"><g transform="matrix(1, 0, 0, 1, 0, -0.000000000000042435)"><g clip-path="url(#0bcdba0637)"><g fill="#000000" fill-opacity="1"><g transform="translate(968.431285, 488.833169)"><g><path d="M 142.203125 -239.296875 C 182.773438 -239.296875 214.113281 -228.925781 236.21875 -208.1875 C 258.320312 -187.445312 269.375 -157.25 269.375 -117.59375 C 269.375 -77.9375 258.320312 -47.738281 236.21875 -27 C 214.113281 -6.257812 182.773438 4.109375 142.203125 4.109375 C 101.640625 4.109375 70.363281 -6.203125 48.375 -26.828125 C 26.382812 -47.453125 15.390625 -77.707031 15.390625 -117.59375 C 15.390625 -157.476562 26.382812 -187.734375 48.375 -208.359375 C 70.363281 -228.984375 101.640625 -239.296875 142.203125 -239.296875 Z M 142.203125 -182.890625 C 126.023438 -182.890625 113.71875 -177.988281 105.28125 -168.1875 C 96.851562 -158.382812 92.640625 -145.164062 92.640625 -128.53125 L 92.640625 -106.65625 C 92.640625 -90.019531 96.851562 -76.800781 105.28125 -67 C 113.71875 -57.195312 126.023438 -52.296875 142.203125 -52.296875 C 158.390625 -52.296875 170.753906 -57.195312 179.296875 -67 C 187.835938 -76.800781 192.109375 -90.019531 192.109375 -106.65625 L 192.109375 -128.53125 C 192.109375 -145.164062 187.835938 -158.382812 179.296875 -168.1875 C 170.753906 -177.988281 158.390625 -182.890625 142.203125 -182.890625 Z M 142.203125 -182.890625 "/></g></g></g><g fill="#000000" fill-opacity="1"><g transform="translate(1253.181791, 488.833169)"><g><path d="M 124.09375 -239.296875 C 154.175781 -239.296875 178.898438 -233.195312 198.265625 -221 C 217.640625 -208.8125 227.554688 -190.75 228.015625 -166.8125 L 228.015625 -162.71875 L 157.25 -162.71875 L 157.25 -164.078125 C 157.25 -170.921875 154.738281 -176.617188 149.71875 -181.171875 C 144.707031 -185.734375 137.078125 -188.015625 126.828125 -188.015625 C 116.796875 -188.015625 109.101562 -186.53125 103.75 -183.5625 C 98.394531 -180.601562 95.71875 -176.957031 95.71875 -172.625 C 95.71875 -166.476562 99.363281 -161.921875 106.65625 -158.953125 C 113.945312 -155.992188 125.679688 -152.921875 141.859375 -149.734375 C 160.773438 -145.859375 176.328125 -141.8125 188.515625 -137.59375 C 200.710938 -133.375 211.367188 -126.476562 220.484375 -116.90625 C 229.597656 -107.332031 234.269531 -94.34375 234.5 -77.9375 C 234.5 -50.132812 225.097656 -29.507812 206.296875 -16.0625 C 187.492188 -2.613281 162.367188 4.109375 130.921875 4.109375 C 94.234375 4.109375 65.691406 -2.039062 45.296875 -14.34375 C 24.898438 -26.65625 14.703125 -48.425781 14.703125 -79.65625 L 86.140625 -79.65625 C 86.140625 -67.800781 89.21875 -59.878906 95.375 -55.890625 C 101.53125 -51.898438 111.101562 -49.90625 124.09375 -49.90625 C 133.664062 -49.90625 141.582031 -50.929688 147.84375 -52.984375 C 154.113281 -55.035156 157.25 -59.253906 157.25 -65.640625 C 157.25 -71.335938 153.769531 -75.609375 146.8125 -78.453125 C 139.863281 -81.296875 128.53125 -84.316406 112.8125 -87.515625 C 93.664062 -91.617188 77.820312 -95.890625 65.28125 -100.328125 C 52.75 -104.773438 41.8125 -112.125 32.46875 -122.375 C 23.125 -132.632812 18.453125 -146.535156 18.453125 -164.078125 C 18.453125 -189.835938 28.421875 -208.8125 48.359375 -221 C 68.304688 -233.195312 93.550781 -239.296875 124.09375 -239.296875 Z M 124.09375 -239.296875 "/></g></g></g></g></g></g></g></g></mask><clipPath id="89133b8276"><path d="M 285.097656 0 L 1500 0 L 1500 750 L 285.097656 750 Z M 285.097656 0 " clip-rule="nonzero"/></clipPath><clipPath id="0cd2c3ade2"><rect x="0" width="1500" y="0" height="750"/></clipPath><clipPath id="2ee88c4723"><rect x="0" width="1500" y="0" height="750"/></clipPath><clipPath id="f3425beeb8"><rect x="0" width="1500" y="0" height="750"/></clipPath></defs><g transform="matrix(1, 0, 0, 1, 0, -0.000000000000042435)"><g clip-path="url(#f3425beeb8)"><g fill="#2e2e2e" fill-opacity="1"><g transform="translate(0.0000053, 488.833169)"><g><path d="M 157.25 -235.1875 C 171.832031 -235.1875 184.820312 -231.820312 196.21875 -225.09375 C 207.613281 -218.375 216.5 -209.144531 222.875 -197.40625 C 229.257812 -185.675781 232.453125 -172.519531 232.453125 -157.9375 L 232.453125 -153.484375 C 232.453125 -138.898438 229.257812 -125.679688 222.875 -113.828125 C 216.5 -101.984375 207.613281 -92.695312 196.21875 -85.96875 C 184.820312 -79.25 171.832031 -75.890625 157.25 -75.890625 L 100.84375 -75.890625 L 100.84375 0 L 25.296875 0 L 25.296875 -235.1875 Z M 100.84375 -130.921875 L 131.953125 -130.921875 C 139.929688 -130.921875 145.910156 -132.972656 149.890625 -137.078125 C 153.878906 -141.179688 155.875 -146.765625 155.875 -153.828125 L 155.875 -156.5625 C 155.875 -163.851562 153.878906 -169.492188 149.890625 -173.484375 C 145.910156 -177.472656 139.929688 -179.46875 131.953125 -179.46875 L 100.84375 -179.46875 Z M 100.84375 -130.921875 "/></g></g></g><g fill="#2e2e2e" fill-opacity="1"><g transform="translate(246.806559, 488.833169)"><g><path d="M 22.90625 0 L 22.90625 -247.84375 L 90.9375 -247.84375 L 90.9375 0 Z M 22.90625 0 "/></g></g></g><g fill="#2e2e2e" fill-opacity="1"><g transform="translate(360.638422, 488.833169)"><g><path d="M 109.734375 -184.59375 C 137.304688 -184.59375 159.753906 -179.976562 177.078125 -170.75 C 194.398438 -161.519531 203.0625 -146.535156 203.0625 -125.796875 L 203.0625 -55.375 C 203.0625 -51.5 203.972656 -48.304688 205.796875 -45.796875 C 207.617188 -43.296875 210.351562 -42.046875 214 -42.046875 L 226.296875 -42.046875 L 226.296875 -2.734375 C 225.617188 -2.273438 223.851562 -1.53125 221 -0.5 C 218.15625 0.519531 214.109375 1.539062 208.859375 2.5625 C 203.617188 3.59375 197.582031 4.109375 190.75 4.109375 C 177.53125 4.109375 166.644531 2.113281 158.09375 -1.875 C 149.550781 -5.863281 143.6875 -11.390625 140.5 -18.453125 C 131.832031 -11.617188 122.144531 -6.148438 111.4375 -2.046875 C 100.726562 2.054688 88.195312 4.109375 73.84375 4.109375 C 31.445312 4.109375 10.25 -12.753906 10.25 -46.484375 C 10.25 -64.035156 14.976562 -77.425781 24.4375 -86.65625 C 33.894531 -95.882812 47.507812 -102.207031 65.28125 -105.625 C 83.0625 -109.039062 106.3125 -110.75 135.03125 -110.75 L 135.03125 -119.640625 C 135.03125 -126.710938 132.578125 -132.070312 127.671875 -135.71875 C 122.773438 -139.363281 116.453125 -141.1875 108.703125 -141.1875 C 101.640625 -141.1875 95.539062 -139.929688 90.40625 -137.421875 C 85.28125 -134.910156 82.71875 -130.921875 82.71875 -125.453125 L 82.71875 -124.09375 L 15.71875 -124.09375 C 15.5 -125.226562 15.390625 -126.820312 15.390625 -128.875 C 15.390625 -145.96875 23.535156 -159.523438 39.828125 -169.546875 C 56.117188 -179.578125 79.421875 -184.59375 109.734375 -184.59375 Z M 135.03125 -78.625 C 115.65625 -78.625 101.351562 -76.515625 92.125 -72.296875 C 82.894531 -68.078125 78.28125 -62.4375 78.28125 -55.375 C 78.28125 -43.976562 86.03125 -38.28125 101.53125 -38.28125 C 110.414062 -38.28125 118.21875 -40.671875 124.9375 -45.453125 C 131.664062 -50.242188 135.03125 -56.171875 135.03125 -63.234375 Z M 135.03125 -78.625 "/></g></g></g><g fill="#2e2e2e" fill-opacity="1"><g transform="translate(588.643909, 488.833169)"><g><path d="M 144.9375 -184.59375 C 165.90625 -184.59375 181.628906 -178.78125 192.109375 -167.15625 C 202.597656 -155.539062 207.84375 -138.789062 207.84375 -116.90625 L 207.84375 0 L 139.8125 0 L 139.8125 -108.703125 C 139.8125 -116.453125 137.816406 -122.660156 133.828125 -127.328125 C 129.835938 -132.003906 124.195312 -134.34375 116.90625 -134.34375 C 108.476562 -134.34375 101.640625 -131.609375 96.390625 -126.140625 C 91.148438 -120.671875 88.53125 -113.945312 88.53125 -105.96875 L 88.53125 0 L 20.515625 0 L 20.515625 -180.5 L 76.234375 -180.5 L 80.671875 -153.140625 C 87.734375 -162.710938 97.019531 -170.347656 108.53125 -176.046875 C 120.039062 -181.742188 132.175781 -184.59375 144.9375 -184.59375 Z M 144.9375 -184.59375 "/></g></g></g><g fill="#2e2e2e" fill-opacity="1"><g transform="translate(816.649457, 488.833169)"><g><path d="M 140.84375 -180.5 L 140.84375 -134.34375 L 102.546875 -134.34375 L 102.546875 -65.640625 C 102.546875 -57.429688 103.910156 -51.445312 106.640625 -47.6875 C 109.378906 -43.925781 114.398438 -42.046875 121.703125 -42.046875 L 140.84375 -42.046875 L 140.84375 -2.046875 C 135.375 -0.222656 128.304688 1.253906 119.640625 2.390625 C 110.984375 3.535156 103.460938 4.109375 97.078125 4.109375 C 77.023438 4.109375 61.585938 0.460938 50.765625 -6.828125 C 39.941406 -14.128906 34.53125 -26.550781 34.53125 -44.09375 L 34.53125 -134.34375 L 9.234375 -134.34375 L 9.234375 -180.5 L 37.265625 -180.5 L 51.953125 -235.1875 L 102.546875 -235.1875 L 102.546875 -180.5 Z M 140.84375 -180.5 "/></g></g></g><g transform="matrix(1, 0, 0, 1, 0, -0.000000000000042435)"><g clip-path="url(#2ee88c4723)"><g mask="url(#02f9bcad81)"><g transform="matrix(1, 0, 0, 1, 0, -0.000000000000042435)"><g clip-path="url(#0cd2c3ade2)"><g clip-path="url(#89133b8276)"><path fill="url(#d4a73c4f7b)" d="M 285.097656 0 L 285.097656 750 L 1500 750 L 1500 0 Z M 285.097656 0 " fill-rule="nonzero"/></g></g></g></g></g></g></g></g></svg>